<svg width="17" height="13" viewBox="0 0 17 13" fill="none" xmlns="http://www.w3.org/2000/svg">
<path d="M10.4913 0.083736L8.9516 1.66506C8.84623 1.7729 8.84652 1.94512 8.95215 2.05271L11.5613 4.71372L0.277266 4.71372C0.124222 4.71372 -3.2782e-07 4.83794 -3.21005e-07 4.99098L-2.22234e-07 7.20921C-2.1542e-07 7.36225 0.124222 7.48648 0.277266 7.48648L11.5613 7.48648L8.95216 10.1475C8.84678 10.2551 8.84652 10.427 8.9516 10.5348L10.4913 12.1162C10.5435 12.1699 10.615 12.2002 10.6899 12.2002C10.7647 12.2002 10.8363 12.1697 10.8884 12.1162L16.5579 6.29335C16.6103 6.23958 16.6366 6.16968 16.6366 6.10008C16.6366 6.03022 16.6103 5.96062 16.5579 5.90655L10.8884 0.083736C10.8363 0.0302186 10.7647 4.91753e-07 10.6899 4.94966e-07C10.615 4.98178e-07 10.5435 0.0302186 10.4913 0.083736Z" fill="white"/>
</svg>
