<svg width="12" height="12" viewBox="0 0 12 12" fill="none" xmlns="http://www.w3.org/2000/svg">
<path d="M6 12C2.69169 12 0 9.30831 0 6C0 2.69169 2.69169 0 6 0C9.30831 0 12 2.69169 12 6C12 9.30831 9.30831 12 6 12ZM6 1.38462C3.45508 1.38462 1.38462 3.45508 1.38462 6C1.38462 8.54492 3.45508 10.6154 6 10.6154C8.54492 10.6154 10.6154 8.54492 10.6154 6C10.6154 3.45508 8.54492 1.38462 6 1.38462Z" fill="#999999"/>
<path d="M5.3075 5.30762H6.69211V8.53839H5.3075V5.30762Z" fill="#999999"/>
<path d="M5.9998 4.1539C6.38215 4.1539 6.69211 3.84395 6.69211 3.46159C6.69211 3.07924 6.38215 2.76929 5.9998 2.76929C5.61745 2.76929 5.3075 3.07924 5.3075 3.46159C5.3075 3.84395 5.61745 4.1539 5.9998 4.1539Z" fill="#999999"/>
</svg>
