<svg width="12" height="12" viewBox="0 0 12 12" fill="none" xmlns="http://www.w3.org/2000/svg">
<path fill-rule="evenodd" clip-rule="evenodd" d="M6 12C9.31371 12 12 9.31371 12 6C12 2.68629 9.31371 0 6 0C2.68629 0 0 2.68629 0 6C0 9.31371 2.68629 12 6 12Z" fill="#999999"/>
<path d="M5.5116 7.1456C5.46643 7.1456 5.4269 7.13148 5.39302 7.10325C5.35913 7.06936 5.34219 7.02983 5.34219 6.98466V6.78983C5.38172 6.55266 5.46925 6.34089 5.60478 6.15454C5.74596 5.96819 5.93796 5.75642 6.18078 5.51925C6.36149 5.33854 6.49702 5.19172 6.58737 5.07878C6.67772 4.96019 6.72572 4.8416 6.73137 4.72301C6.74831 4.54795 6.68902 4.4096 6.55349 4.30795C6.4236 4.20066 6.26549 4.14701 6.07913 4.14701C5.63866 4.14701 5.3676 4.35878 5.26596 4.78231C5.22078 4.91783 5.13325 4.9856 5.00337 4.9856H3.96996C3.90784 4.9856 3.85702 4.96583 3.81749 4.9263C3.7836 4.88113 3.76666 4.82466 3.76666 4.75689C3.77796 4.4463 3.87678 4.15266 4.06313 3.87595C4.24949 3.5936 4.52337 3.36489 4.88478 3.18983C5.24619 3.01478 5.67819 2.92725 6.18078 2.92725C6.69466 2.92725 7.11254 3.00913 7.43443 3.17289C7.75631 3.33101 7.98501 3.52866 8.12054 3.76583C8.26172 3.99736 8.33231 4.23454 8.33231 4.47736C8.33231 4.75407 8.26737 4.99689 8.13749 5.20583C8.01325 5.41478 7.8269 5.65478 7.57843 5.92583C7.42596 6.0896 7.30454 6.22795 7.21419 6.34089C7.12949 6.45383 7.06454 6.57242 7.01937 6.69666C7.00243 6.74748 6.98266 6.82372 6.96007 6.92536C6.9149 7.00442 6.87537 7.06089 6.84149 7.09478C6.8076 7.12866 6.7596 7.1456 6.69749 7.1456H5.5116ZM5.52854 8.94136C5.46643 8.94136 5.4156 8.9216 5.37607 8.88207C5.33654 8.84254 5.31678 8.79172 5.31678 8.7296V7.76395C5.31678 7.70183 5.33654 7.65101 5.37607 7.61148C5.4156 7.57195 5.46643 7.55219 5.52854 7.55219H6.61278C6.6749 7.55219 6.72572 7.57195 6.76525 7.61148C6.81043 7.65101 6.83302 7.70183 6.83302 7.76395V8.7296C6.83302 8.79172 6.81043 8.84254 6.76525 8.88207C6.72572 8.9216 6.6749 8.94136 6.61278 8.94136H5.52854Z" fill="white"/>
</svg>
